<?xml version="1.0" encoding="iso-8859-1"?>
<!-- Uploaded to: SVG Repo, www.svgrepo.com, Generator: SVG Repo Mixer Tools -->
<svg fill="#000000" height="800px" width="800px" version="1.1" id="Layer_1" xmlns="http://www.w3.org/2000/svg" xmlns:xlink="http://www.w3.org/1999/xlink" 
	 viewBox="0 0 512 512" xml:space="preserve">
<g transform="translate(1 1)">
	<g>
		<g>
			<path d="M511,72.143c0-29.667-23.323-52.656-54.857-54.693v-0.164H154.429c-30.171,0-54.857,24.686-54.857,54.857v292.571H-1
				v73.143c0,30.171,21.943,52.114,54.857,54.857h292.571c35.657,0,64-28.343,64-64V163.571H511V72.143z M17.286,437.857V383h82.286
				h192v54.857c0,14.5,5.08,27.09,13.998,36.571H54.771C32.829,472.6,17.286,457.971,17.286,437.857z M392.143,428.714
				c0,25.6-20.114,45.714-44.8,45.714c-21.943-1.829-37.486-16.457-37.486-36.571v-73.143h-192V72.143
				c0-20.114,16.457-36.571,36.571-36.571h252.217c-1.19,1.255-2.319,2.561-3.378,3.92c-6.435,8.007-10.415,18.154-11.032,29.534
				c-0.005,0.087-0.014,0.172-0.018,0.259c-0.047,0.945-0.074,1.897-0.074,2.858v91.429V428.714z M492.714,145.286h-82.286V72.143
				c0-0.732,0.021-1.454,0.06-2.165c0.008-0.143,0.025-0.28,0.034-0.421c0.038-0.571,0.081-1.14,0.143-1.698
				c0.014-0.124,0.035-0.243,0.05-0.366c0.07-0.57,0.147-1.137,0.242-1.693c0.018-0.107,0.042-0.211,0.061-0.318
				c0.102-0.564,0.212-1.123,0.34-1.672c0.024-0.105,0.053-0.207,0.079-0.312c0.13-0.539,0.269-1.073,0.424-1.597
				c0.037-0.125,0.078-0.246,0.116-0.37c0.15-0.489,0.308-0.974,0.478-1.45c0.06-0.166,0.124-0.329,0.186-0.493
				c0.156-0.414,0.317-0.825,0.488-1.228c0.098-0.232,0.202-0.459,0.305-0.687c0.141-0.313,0.285-0.624,0.434-0.93
				c0.156-0.318,0.318-0.631,0.483-0.941c0.1-0.19,0.202-0.379,0.306-0.566c0.236-0.422,0.478-0.84,0.732-1.248
				c0.029-0.047,0.058-0.095,0.088-0.142c5.579-8.902,15.117-14.519,25.19-17.013c3.578-0.831,7.255-1.258,10.903-1.258
				c20.114,0,41.143,12.8,41.143,36.571V145.286z"/>
			<path d="M163.571,117.857H255c5.486,0,9.143-3.657,9.143-9.143s-3.657-9.143-9.143-9.143h-91.429
				c-5.486,0-9.143,3.657-9.143,9.143S158.086,117.857,163.571,117.857z"/>
			<path d="M346.429,264.143H163.571c-5.486,0-9.143,3.657-9.143,9.143s3.657,9.143,9.143,9.143h182.857
				c5.486,0,9.143-3.657,9.143-9.143S351.914,264.143,346.429,264.143z"/>
			<path d="M181.857,319h-9.143h-9.143c-5.486,0-9.143,3.657-9.143,9.143c0,5.486,3.657,9.143,9.143,9.143h9.143h9.143
				c5.486,0,9.143-3.657,9.143-9.143C191,322.657,187.343,319,181.857,319z"/>
			<path d="M264.143,319h-27.429c-5.486,0-9.143,3.657-9.143,9.143c0,5.486,3.657,9.143,9.143,9.143h27.429
				c5.486,0,9.143-3.657,9.143-9.143C273.286,322.657,269.629,319,264.143,319z"/>
			<path d="M163.571,227.571h9.143H191c5.486,0,9.143-3.657,9.143-9.143s-3.657-9.143-9.143-9.143h-18.286h-9.143
				c-5.486,0-9.143,3.657-9.143,9.143S158.086,227.571,163.571,227.571z"/>
			<path d="M346.429,209.286H245.857c-5.486,0-9.143,3.657-9.143,9.143s3.657,9.143,9.143,9.143h100.571
				c5.486,0,9.143-3.657,9.143-9.143S351.914,209.286,346.429,209.286z"/>
			<path d="M163.571,172.714h9.143h64c5.486,0,9.143-3.657,9.143-9.143s-3.657-9.143-9.143-9.143h-64h-9.143
				c-5.486,0-9.143,3.657-9.143,9.143S158.086,172.714,163.571,172.714z"/>
			<path d="M346.429,154.429h-54.857c-5.486,0-9.143,3.657-9.143,9.143s3.657,9.143,9.143,9.143h54.857
				c5.486,0,9.143-3.657,9.143-9.143S351.914,154.429,346.429,154.429z"/>
		</g>
	</g>
</g>
</svg>